<?xml version="1.0" encoding="UTF-8"?>
<svg width="80px" height="31px" viewBox="0 0 80 31" version="1.1" xmlns="http://www.w3.org/2000/svg" xmlns:xlink="http://www.w3.org/1999/xlink">
    <!-- Generator: Sketch 51.3 (57544) - http://www.bohemiancoding.com/sketch -->
    <title>offr logo</title>
    <desc>Created with Sketch.</desc>
    <defs></defs>
    <g id="Symbols" stroke="none" stroke-width="1" fill="none" fill-rule="evenodd">
        <g id="Header" transform="translate(-370.000000, -25.000000)">
            <g id="header">
                <g id="brand" transform="translate(370.000000, 25.000000)">
                    <g id="Group">
                        <g id="offr-logo">
                            <path d="M45.6142857,0.197953488 C46.4,0.282790698 47.2142857,0.452465116 48.0285714,0.706976744 L48.3428571,0.777674419 L47.4285714,5.64167442 L47.0571429,5.55683721 C46.2,5.35888372 45.3857143,5.24576744 44.6142857,5.24576744 C43.9428571,5.24576744 43.3285714,5.4295814 42.7857143,5.81134884 C42.2857143,6.16483721 42.0285714,6.84353488 42.0285714,7.80502326 L42.0285714,8.27162791 L47.0428571,8.27162791 L47.0428571,13.4466977 L42.0285714,13.4466977 L42.0285714,30.3858605 L35.5142857,30.3858605 L35.5142857,13.4466977 L32.1142857,13.4466977 L32.1142857,8.27162791 L35.5142857,8.27162791 L35.5142857,7.93227907 C35.5142857,6.57488372 35.7142857,5.38716279 36.1142857,4.39739535 C36.5142857,3.39348837 37.0857143,2.55925581 37.8,1.92297674 C38.5142857,1.30083721 39.3571429,0.820093023 40.3142857,0.523162791 C41.2571429,0.226232558 42.2857143,0.0706976744 43.4,0.0706976744 C44.1,0.0706976744 44.8428571,0.113116279 45.6142857,0.197953488 Z M62.1142857,0.197953488 C62.9,0.282790698 63.7,0.452465116 64.5285714,0.706976744 L64.8428571,0.777674419 L63.9285714,5.64167442 L63.5571429,5.55683721 C62.7,5.35888372 61.8857143,5.24576744 61.1142857,5.24576744 C60.4428571,5.24576744 59.8285714,5.4295814 59.2857143,5.81134884 C58.7857143,6.16483721 58.5285714,6.84353488 58.5285714,7.80502326 L58.5285714,8.27162791 L63.5428571,8.27162791 L63.5428571,13.4466977 L58.5285714,13.4466977 L58.5285714,30.3858605 L52.0142857,30.3858605 L52.0142857,13.4466977 L48.6142857,13.4466977 L48.6142857,8.27162791 L52.0142857,8.27162791 L52.0142857,7.93227907 C52.0142857,6.57488372 52.2142857,5.38716279 52.6142857,4.39739535 C53.0142857,3.39348837 53.5857143,2.55925581 54.3,1.92297674 C55.0142857,1.30083721 55.8571429,0.820093023 56.8142857,0.523162791 C57.7571429,0.226232558 58.7857143,0.0706976744 59.9,0.0706976744 C60.6,0.0706976744 61.3428571,0.113116279 62.1142857,0.197953488 Z M79.6428571,8.11609302 L79.9571429,8.1867907 L79.1571429,14.1112558 L78.7714286,14.0122791 C78.1428571,13.8567442 77.3428571,13.771907 76.4142857,13.771907 C75.8142857,13.771907 75.2285714,13.8426047 74.6857143,13.984 C74.1571429,14.1253953 73.6857143,14.379907 73.2571429,14.7475349 C72.8142857,15.1434419 72.4714286,15.595907 72.2571429,16.0907907 C72.0428571,16.5856744 71.9285714,17.1088372 71.9285714,17.632 L71.9285714,30.3717209 L65.4142857,30.3717209 L65.4142857,8.27162791 L71.7571429,8.27162791 L71.7571429,10.5339535 C72.3714286,9.79869767 73.0714286,9.21897674 73.8428571,8.7947907 C74.9142857,8.20093023 76.0571429,7.904 77.2428571,7.904 C77.8142857,7.904 78.2857143,7.93227907 78.6571429,7.97469767 C79.0285714,8.00297674 79.3571429,8.05953488 79.6428571,8.11609302 Z" id="ffr" fill="#FFFFFF" fill-rule="nonzero"></path>
                            <path d="M26.1376543,21.4348148 C24.8882716,20.1962963 22.8722222,20.1962963 21.6228395,21.4348148 C18.1444444,24.882963 12.4796296,24.882963 9.00123457,21.4348148 C5.52283951,17.9866667 5.52283951,12.3711111 9.00123457,8.92296296 C9.00123457,8.92296296 9.00123457,8.92296296 9.00123457,8.92296296 C10.2506173,7.68444444 10.2506173,5.68592593 9.00123457,4.44740741 C8.36234568,3.82814815 7.55308642,3.51851852 6.72962963,3.51851852 C5.90617284,3.51851852 5.09691358,3.82814815 4.47222222,4.44740741 C-1.49074074,10.3585185 -1.49074074,19.9992593 4.47222222,25.9103704 C10.4493827,31.8214815 20.1604938,31.8214815 26.1234568,25.9103704 C26.1234568,25.9103704 26.1234568,25.9103704 26.1234568,25.9103704 C27.3728395,24.6718519 27.3728395,22.6733333 26.1376543,21.4348148 Z" id="Shape" fill="#960F8C" fill-rule="nonzero"></path>
                            <path d="M21.6228395,8.92296296 C19.9333333,7.24814815 17.6901235,6.33333333 15.3049383,6.33333333 C12.9197531,6.33333333 10.6765432,7.24814815 8.98703704,8.92296296 C8.98703704,8.92296296 8.98703704,8.92296296 8.98703704,8.92296296 C5.50864198,12.3711111 5.50864198,17.9866667 8.98703704,21.4348148 C12.4654321,24.882963 18.1302469,24.882963 21.608642,21.4348148 C25.1012346,17.9866667 25.1012346,12.3711111 21.6228395,8.92296296 Z" id="Shape"></path>
                            <path d="M4.47222222,8.92296296 C5.72160494,10.1614815 7.73765432,10.1614815 8.98703704,8.92296296 C8.98703704,8.92296296 8.98703704,8.92296296 8.98703704,8.92296296 C10.2364198,7.68444444 10.2364198,5.68592593 8.98703704,4.44740741 C8.36234568,3.82814815 7.55308642,3.51851852 6.72962963,3.51851852 C5.90617284,3.51851852 5.09691358,3.82814815 4.47222222,4.44740741 C3.23703704,5.68592593 3.23703704,7.68444444 4.47222222,8.92296296 Z" id="Shape" fill="#46E166" fill-rule="nonzero"></path>
                            <path d="M4.47222222,8.92296296 C5.72160494,10.1614815 7.73765432,10.1614815 8.98703704,8.92296296 C8.98703704,8.92296296 8.98703704,8.92296296 8.98703704,8.92296296 C10.2364198,7.68444444 10.2364198,5.68592593 8.98703704,4.44740741 C8.36234568,3.82814815 7.55308642,3.51851852 6.72962963,3.51851852 C5.90617284,3.51851852 5.09691358,3.82814815 4.47222222,4.44740741 C3.23703704,5.68592593 3.23703704,7.68444444 4.47222222,8.92296296 Z" id="Shape" fill="#00F283" fill-rule="nonzero"></path>
                            <path d="M26.1376543,21.4348148 C24.8882716,20.1962963 22.8722222,20.1962963 21.6228395,21.4348148 C20.3734568,22.6733333 20.3734568,24.6718519 21.6228395,25.9103704 C22.8722222,27.1488889 24.8882716,27.1488889 26.1376543,25.9103704 C26.1376543,25.9103704 26.1376543,25.9103704 26.1376543,25.9103704 C27.3728395,24.6718519 27.3728395,22.6733333 26.1376543,21.4348148 Z" id="Shape" fill="#46E166" fill-rule="nonzero"></path>
                            <path d="M26.1376543,21.4348148 C24.8882716,20.1962963 22.8722222,20.1962963 21.6228395,21.4348148 C20.3734568,22.6733333 20.3734568,24.6718519 21.6228395,25.9103704 C22.8722222,27.1488889 24.8882716,27.1488889 26.1376543,25.9103704 C26.1376543,25.9103704 26.1376543,25.9103704 26.1376543,25.9103704 C27.3728395,24.6718519 27.3728395,22.6733333 26.1376543,21.4348148 Z" id="Shape" fill="#00F283" fill-rule="nonzero"></path>
                            <path d="M26.1376543,4.44740741 C23.241358,1.5762963 19.3938272,0 15.3049383,0 C11.2160494,0 7.36851852,1.5762963 4.47222222,4.44740741 C3.22283951,5.68592593 3.22283951,7.68444444 4.47222222,8.92296296 C5.72160494,10.1614815 7.73765432,10.1614815 8.98703704,8.92296296 C8.98703704,8.92296296 8.98703704,8.92296296 8.98703704,8.92296296 C10.6765432,7.24814815 12.9197531,6.33333333 15.3049383,6.33333333 C17.6901235,6.33333333 19.9333333,7.24814815 21.6228395,8.92296296 C25.1012346,12.3711111 25.1012346,17.9866667 21.6228395,21.4348148 C20.3734568,22.6733333 20.3734568,24.6718519 21.6228395,25.9103704 C22.8722222,27.1488889 24.8882716,27.1488889 26.1376543,25.9103704 C26.1376543,25.9103704 26.1376543,25.9103704 26.1376543,25.9103704 C32.1006173,19.9851852 32.1006173,10.3585185 26.1376543,4.44740741 Z" id="Shape" fill="#E239BF" fill-rule="nonzero"></path>
                            <path d="M4.47222222,8.92296296 C5.72160494,10.1614815 7.73765432,10.1614815 8.98703704,8.92296296 C8.98703704,8.92296296 8.98703704,8.92296296 8.98703704,8.92296296 C10.2364198,7.68444444 10.2364198,5.68592593 8.98703704,4.44740741 C8.36234568,3.82814815 7.55308642,3.51851852 6.72962963,3.51851852 C5.90617284,3.51851852 5.09691358,3.82814815 4.47222222,4.44740741 C3.23703704,5.68592593 3.23703704,7.68444444 4.47222222,8.92296296 Z" id="Shape" fill="#FF7133" fill-rule="nonzero"></path>
                            <path d="M26.1376543,21.4348148 C24.8882716,20.1962963 22.8722222,20.1962963 21.6228395,21.4348148 C20.3734568,22.6733333 20.3734568,24.6718519 21.6228395,25.9103704 C22.8722222,27.1488889 24.8882716,27.1488889 26.1376543,25.9103704 C26.1376543,25.9103704 26.1376543,25.9103704 26.1376543,25.9103704 C27.3728395,24.6718519 27.3728395,22.6733333 26.1376543,21.4348148 Z" id="Shape" fill="#FF7133" fill-rule="nonzero"></path>
                        </g>
                    </g>
                </g>
            </g>
        </g>
    </g>
</svg>